<svg width="66" height="35" viewBox="0 0 66 35" fill="none" xmlns="http://www.w3.org/2000/svg">
<g clip-path="url(#clip0_2_73)">
<path d="M12.6826 0L0 35H8.09885L17.3507 9.47368L39.8756 35L44.2062 29.2105L18.4193 0H12.6826Z" fill="#068AD4"/>
<path d="M39.3131 23.6623L43.9531 17.4342L28.5709 0H66L56.7482 12.3684L52.8393 6.53509H44.5718L53.0081 17.3684L44.2062 29.2105L39.3131 23.6623Z" fill="#068AD4"/>
<path d="M13.4981 35C15.0978 35 16.3946 33.9887 16.3946 32.7412C16.3946 31.4937 15.0978 30.4825 13.4981 30.4825C11.8984 30.4825 10.6016 31.4937 10.6016 32.7412C10.6016 33.9887 11.8984 35 13.4981 35Z" fill="#068AD4"/>
</g>
<defs>
<clipPath id="clip0_2_73">
<rect width="66" height="35" fill="white"/>
</clipPath>
</defs>
</svg>
